<?xml version="1.0" encoding="utf-8"?>
<!-- Generator: Adobe Illustrator 22.0.1, SVG Export Plug-In . SVG Version: 6.00 Build 0)  -->
<svg version="1.1" xmlns="http://www.w3.org/2000/svg" xmlns:xlink="http://www.w3.org/1999/xlink" x="0px" y="0px"
	 viewBox="0 0 507 507" style="enable-background:new 0 0 507 507;" xml:space="preserve">
<style type="text/css">
	.st0{display:none;fill:#FFFFFF;}
	.st1{display:none;}
	.st2{fill:#FFFFFF;}
	.st3{fill:none;stroke:#000000;stroke-width:9;stroke-miterlimit:10;}
</style>
<g id="Layer_1">
	<g>
		<g>
			<path class="st0" d="M251.9-37.6c112.8,0,225.7,0,338.5,0.2c1.3,0,3.8,2.5,3.8,3.8c0.2,190,0.2,380,0,570c0,1.3-2.5,3.8-3.8,3.8
				c-225.7,0.2-451.3,0.2-677,0c-1.3,0-3.8-2.5-3.8-3.8c-0.2-190-0.2-380,0-570c0-1.3,2.5-3.8,3.8-3.8
				C26.2-37.6,139.1-37.6,251.9-37.6z M497.9,98.6c-0.7-2-1.5-6.4-2.6-6.5c-3.9-0.4-8.4-0.1-12,1.4c-16.3,7.2-32.3,15-48.5,22.4
				c-11.3,5.1-22.7,9.9-34.1,14.9c-17,7.6-34,15.3-51.1,22.9c-15.4,6.8-30.9,13.4-46.2,20.3c-16.4,7.4-32.6,15.2-48.9,22.6
				c-15.4,6.9-31,13.4-46.1,20.7c-1.4,0.7-1.6,8,0.1,9.7c3.7,3.8,9.1,5.9,13.8,8.7c16,9.7,31.9,19.4,47.9,28.9
				c7.5,4.4,12.5,9.7,12.4,19.3c-0.2,14.6,0.3,29.3,0.9,43.9c0.2,5.6,1.9,11.1,9.4,6.5c9.2-5.6,18.2-11.5,27.2-17.3
				c8.1-5.3,15.6-12.7,25.9-3.3c3.3,3.1,7.9,4.8,11.9,7.1c15.6,9.4,31.3,18.5,46.7,28.2c6.9,4.4,12.5,4,15.1-3.7
				c5.3-15.6,9.9-31.6,14.7-47.4c4.8-16,9.4-32.1,14.4-48c5.2-16.5,11.1-32.8,16.3-49.4c5.2-16.7,9.7-33.7,14.9-50.5
				c2.8-9,6.1-17.8,9.3-26.7C491.9,115.6,494.7,107.5,497.9,98.6z M121.7,493c7-3.2,12.5-5.5,17.7-8.2c1.6-0.9,2.5-3,3.8-4.6
				c-2.5-1.2-5.1-3.5-7.6-3.5c-6.6,0.1-13.3,0.6-19.8,2.1c-2.4,0.6-4.2,4.1-6.2,6.3C113.3,487.6,117.2,490.1,121.7,493z M2.2,402.6
				c3.9,8.2,7.1,15.6,11,22.6c0.8,1.4,4.9,2.4,6.5,1.6c1.5-0.7,2.7-4.4,2.2-6.3c-1.6-6.2-3.5-12.5-6.5-18.2
				c-1.5-2.9-5.6-4.6-8.5-6.8C5.4,397.9,3.9,400.1,2.2,402.6z M67.4,479.1c2.8-2.5,5.4-3.9,5.3-4.9c-0.3-2.6-1.2-5.8-3.1-7.3
				c-5.4-4.3-11.2-8.3-17.3-11.7c-2-1.1-5.4-0.6-7.9,0.1c-0.7,0.2-1.4,4.9-0.5,5.6C51.4,467.1,59.2,472.9,67.4,479.1z M183.5,466.7
				c6.6-6,13.8-12.3,20.5-18.9c0.8-0.8,0.2-4.3-0.9-5.2c-1.2-1-4.3-1.3-5.5-0.4c-6.9,5.1-13.5,10.5-20,16c-1.1,0.9-2.1,3.8-1.5,4.6
				C177.2,464.1,179.4,464.6,183.5,466.7z M248.7,403.6c-4.5-2.8-7.7-5.3-8-4.9c-4.2,4.1-8.1,8.5-11.6,13.2
				c-0.3,0.4,2.4,3.1,3.7,4.7C237.4,412.7,242.1,408.9,248.7,403.6z"/>
			<path d="M493.9,120.6c-3.2,8.9-6,16.9-8.9,24.9c-3.1,8.9-6.5,17.7-9.3,26.7c-5.1,16.8-9.6,33.7-14.9,50.5
				c-5.2,16.5-11.1,32.9-16.3,49.4c-5,15.9-9.5,32-14.4,48c-4.8,15.8-9.3,31.7-14.7,47.4c-2.6,7.7-8.2,8.1-15.1,3.7
				c-15.4-9.7-31.1-18.9-46.7-28.2c-4-2.4-8.5-4.1-11.9-7.1c-10.2-9.4-17.8-1.9-25.9,3.3c-9,5.8-18,11.7-27.2,17.3
				c-7.5,4.6-9.1-0.9-9.4-6.5c-0.6-14.6-1.1-29.3-0.9-43.9c0.1-9.6-4.9-14.9-12.4-19.3c-16.1-9.5-32-19.3-47.9-28.9
				c-4.7-2.8-10-5-13.8-8.7c-1.7-1.7-1.4-9-0.1-9.7c15.2-7.4,30.8-13.8,46.1-20.7c16.4-7.4,32.6-15.2,48.9-22.6
				c15.3-6.9,30.8-13.5,46.2-20.3c17-7.6,34-15.3,51.1-22.9c11.3-5,22.8-9.8,34.1-14.9c16.2-7.4,32.2-15.2,48.5-22.4
				c3.6-1.6,7.2-3.6,11.1-3.2C491.6,112.5,496.4,114.4,493.9,120.6z M467.6,162.3c-0.4-0.9-1.1-2.5-1.9-4c0-0.1-1.6,0.3-2,0.9
				c-11.1,14.1-22.2,28.1-33.1,42.3c-13.7,17.9-27.2,36-40.9,53.9c-15.1,19.8-30.6,39.3-45.4,59.3c-1.5,2.1-0.9,8.6,0.9,9.8
				c16.8,10.9,34,21.1,51.1,31.5c5.5,3.3,9.9,2.7,12.1-4c5.6-17.5,11.3-34.9,16.7-52.4c5-16,9.5-32.1,14.6-48
				c7.3-23,15-45.9,22.3-68.9C464,176.3,465.6,169.7,467.6,162.3z M282.6,283c2.6-1.5,5-2.3,6.8-3.9c22.9-19.5,45.8-39.1,68.7-58.5
				c24.6-20.8,49.3-41.5,73.8-62.4c2.1-1.8,3-5,4.5-7.5c-3.4,0.4-7.1,0.1-10.2,1.3c-7.7,2.9-15.1,6.6-22.6,9.9
				c-11,4.9-22.1,9.7-33.1,14.6c-12.3,5.5-24.6,11.2-36.9,16.7c-10.8,4.8-21.8,9.5-32.6,14.3c-17.5,7.8-35,15.5-52.4,23.5
				c-7.8,3.6-15.4,7.6-22.7,12c-1,0.6-1.1,5.9,0,6.6c13,8.5,26.2,16.7,39.6,24.6C270.8,277.4,276.7,280,282.6,283z M289.4,307.6
				c0,8.1-0.7,16.4,0.4,24.4c0.3,2.3,7.3,6.2,8.5,5.4c11.6-8.1,24.5-15.5,33.6-26.1c21.2-24.9,40.5-51.4,60.3-77.4
				c13.4-17.5,26.3-35.3,39.4-53.1c0.9-1.3,1.1-3.1,1.6-4.6c-2.2,0.5-4.8,0.3-6.4,1.5c-6.1,4.8-11.8,10.1-17.8,15.1
				c-35,29.5-70.1,59.1-105.2,88.6C295.7,288.3,287,295,289.4,307.6z"/>
			<path class="st1" d="M121.7,493c-4.5-2.9-8.3-5.4-12.2-7.9c2-2.2,3.8-5.8,6.2-6.3c6.4-1.5,13.2-2,19.8-2.1c2.5,0,5.1,2.3,7.6,3.5
				c-1.2,1.6-2.2,3.7-3.8,4.6C134.1,487.5,128.7,489.8,121.7,493z"/>
			<path class="st1" d="M2.2,402.6c1.6-2.4,3.2-4.7,4.7-7c2.9,2.2,6.9,3.8,8.5,6.8c3,5.7,4.8,12,6.5,18.2c0.5,1.9-0.7,5.6-2.2,6.3
				c-1.6,0.8-5.7-0.2-6.5-1.6C9.3,418.2,6.1,410.8,2.2,402.6z"/>
			<path class="st1" d="M67.4,479.1c-8.1-6.2-16-12-23.5-18.2c-0.9-0.7-0.2-5.4,0.5-5.6c2.5-0.7,5.8-1.2,7.9-0.1
				c6,3.4,11.9,7.3,17.3,11.7c1.9,1.5,2.7,4.7,3.1,7.3C72.7,475.2,70.2,476.6,67.4,479.1z"/>
			<path class="st1" d="M183.5,466.7c-4.1-2.1-6.3-2.6-7.4-4c-0.6-0.8,0.4-3.6,1.5-4.6c6.5-5.5,13.1-11,20-16
				c1.2-0.9,4.3-0.6,5.5,0.4c1.1,0.9,1.7,4.5,0.9,5.2C197.3,454.4,190.2,460.7,183.5,466.7z"/>
			<path class="st1" d="M248.7,403.6c-6.6,5.3-11.2,9.2-15.9,13c-1.3-1.6-4-4.3-3.7-4.7c3.5-4.7,7.4-9.1,11.6-13.2
				C241,398.3,244.2,400.8,248.7,403.6z"/>
			<path class="st2" d="M467.6,162.3c-2,7.4-3.6,14-5.7,20.5c-7.4,23-15,45.9-22.3,68.9c-5.1,15.9-9.6,32.1-14.6,48
				c-5.5,17.5-11.1,35-16.7,52.4c-2.2,6.7-6.6,7.3-12.1,4c-17.1-10.4-34.4-20.6-51.1-31.5c-1.8-1.2-2.4-7.8-0.9-9.8
				c14.8-20,30.3-39.5,45.4-59.3c13.7-17.9,27.2-36,40.9-53.9c10.9-14.2,22-28.2,33.1-42.3c0.4-0.5,1.9-0.9,2-0.9
				C466.4,158.4,468.4,160.4,467.6,162.3z"/>
			<path class="st2" d="M282.6,283c-5.9-3-11.8-5.6-17.2-8.8c-13.3-8-26.6-16.1-39.6-24.6c-1.1-0.7-1-6,0-6.6
				c7.3-4.4,15-8.4,22.7-12c17.4-8,34.9-15.7,52.4-23.5c10.9-4.8,21.8-9.5,32.6-14.3c12.3-5.5,24.6-11.2,36.9-16.7
				c11-4.9,22.1-9.7,33.1-14.6c7.5-3.3,15-6.9,22.6-9.9c3.1-1.2,7.2-2.6,10.2-1.3c2,1.7-2.4,5.7-4.5,7.5
				c-24.5,20.9-49.3,41.6-73.8,62.4c-23,19.5-45.8,39.1-68.7,58.5C287.5,280.7,285.2,281.6,282.6,283z"/>
			<path class="st2" d="M289.4,307.6c-2.4-12.6,6.3-19.3,14.5-26.2c35.1-29.5,70.1-59.1,105.2-88.6c5.9-5,11.7-10.3,17.8-15.1
				c1.6-1.2,4.5-3.3,6.4-1.5c1.2,1.2-0.7,3.4-1.6,4.6c-13.1,17.7-26,35.5-39.4,53.1c-19.8,26-39.2,52.5-60.3,77.4
				c-9,10.6-21.9,18-33.6,26.1c-1.2,0.8-8.2-3.1-8.5-5.4C288.8,324,289.4,315.7,289.4,307.6z"/>
		</g>
	</g>
	<line class="st3" x1="96.4" y1="66.4" x2="115.4" y2="47.4"/>
	<line class="st3" x1="145.3" y1="41.6" x2="166.5" y2="58.2"/>
	<line class="st3" x1="179.5" y1="84.6" x2="190.3" y2="109.2"/>
	<line class="st3" x1="174.8" y1="145.8" x2="163" y2="170"/>
	<line class="st3" x1="136.4" y1="206.4" x2="117.4" y2="225.4"/>
	<line class="st3" x1="87.4" y1="257.7" x2="72.4" y2="280.1"/>
	<line class="st3" x1="47.4" y1="318.7" x2="32.4" y2="341.1"/>
	<line class="st3" x1="42.5" y1="382.3" x2="52" y2="407.5"/>
	<line class="st3" x1="70.1" y1="437.5" x2="90.5" y2="455"/>
	<line class="st3" x1="164.7" y1="457.3" x2="137.9" y2="457.3"/>
	<line class="st3" x1="221.4" y1="432.4" x2="203.1" y2="452.1"/>
	<line class="st3" x1="269.2" y1="384.4" x2="253.4" y2="406.1"/>
</g>
<g id="Layer_2">
</g>
</svg>
