<?xml version="1.0" encoding="utf-8"?>
<!-- Generator: Adobe Illustrator 22.0.1, SVG Export Plug-In . SVG Version: 6.00 Build 0)  -->
<svg version="1.1" id="Layer_1" xmlns="http://www.w3.org/2000/svg" xmlns:xlink="http://www.w3.org/1999/xlink" x="0px" y="0px"
	 viewBox="0 0 300 300" style="enable-background:new 0 0 300 300;" xml:space="preserve">
<style type="text/css">
	.st0{fill:#FFFFFF;}
</style>
<rect x="-5" y="-4" width="309" height="309"/>
<g id="Layer_4">
	<polygon class="st0" points="247.3,206.2 205.2,113.8 163,206.2 149.3,206.2 200.5,93.8 209.8,93.8 261,206.2 	"/>
	<g>
		<path class="st0" d="M94.8,107.6c23.3,0,42.4,19,42.4,42.4s-19,42.4-42.4,42.4s-42.4-19-42.4-42.4S71.5,107.6,94.8,107.6
			 M94.8,94.2C64,94.2,39,119.2,39,150s25,55.8,55.8,55.8s55.8-25,55.8-55.8S125.8,94.2,94.8,94.2L94.8,94.2z"/>
	</g>
</g>
</svg>
