<?xml version="1.0" encoding="utf-8"?>
<!-- Generator: Adobe Illustrator 22.0.1, SVG Export Plug-In . SVG Version: 6.00 Build 0)  -->
<svg version="1.0" xmlns="http://www.w3.org/2000/svg" xmlns:xlink="http://www.w3.org/1999/xlink" x="0px" y="0px"
	 viewBox="0 0 200 100" style="enable-background:new 0 0 200 100;" xml:space="preserve">
<style type="text/css">
	.st0{display:none;}
	.st1{display:inline;}
</style>
<g id="Layer_1" class="st0">
	<g class="st1">
		<path d="M99.3-40.1c50.3,0,91.2,40.9,91.2,91.2s-40.9,91.2-91.2,91.2S8.1,101.4,8.1,51.1S49-40.1,99.3-40.1 M99.3-44.9
			c-53,0-96,43-96,96s43,96,96,96s96-43,96-96S152.4-44.9,99.3-44.9L99.3-44.9z"/>
	</g>
	<polygon class="st1" points="102.7,-43.9 100.8,-43.9 98.8,-43.9 96.9,-43.9 1.8,146.2 7.2,146.2 99.8,-39 192.4,146.2 
		197.8,146.2 	"/>
</g>
<g id="Layer_3">
</g>
<g id="Layer_2" class="st0">
	<polygon class="st1" points="102.9,-46 100.9,-46 99,-46 97,-46 0.5,147 5.9,147 99.9,-41.1 194,147 199.4,147 	"/>
	<g class="st1">
		<path d="M99.5-42.1c51.1,0,92.6,41.6,92.6,92.6s-41.6,92.6-92.6,92.6S6.8,101.6,6.8,50.5S48.4-42.1,99.5-42.1 M99.5-47
			C45.6-47,2-3.3,2,50.5S45.6,148,99.5,148S197,104.3,197,50.5S153.3-47,99.5-47L99.5-47z"/>
	</g>
</g>
<g id="Layer_4">
	<polygon points="185.9,99.6 148.7,18 111.5,99.6 99.4,99.6 144.6,0.4 152.8,0.4 198,99.6 	"/>
	<g>
		<path d="M51.3,12.6c20.6,0,37.4,16.8,37.4,37.4S71.9,87.4,51.3,87.4S13.9,70.6,13.9,50S30.7,12.6,51.3,12.6 M51.3,0.7
			C24.1,0.7,2,22.8,2,50s22.1,49.3,49.3,49.3s49.3-22.1,49.3-49.3S78.6,0.7,51.3,0.7L51.3,0.7z"/>
	</g>
</g>
</svg>
